<svg width="881" height="203" viewBox="0 0 881 203" fill="none" xmlns="http://www.w3.org/2000/svg">
<path fill-rule="evenodd" clip-rule="evenodd" d="M33.666 8.07399C20.573 12.578 12.777 20.615 7.981 34.555C6.126 39.948 6 43.056 6 83.551C6 123.795 6.137 127.229 7.975 133.145C11.821 145.522 20.679 155.241 31.61 159.079C41.138 162.425 57.209 163.038 70.032 160.546L73.564 159.859L75.461 167.68C76.504 171.981 77.461 175.646 77.586 175.824C78.056 176.491 106 171.709 106 170.962C106 170.533 102.635 164.326 98.522 157.169L91.044 144.155L93.006 139.72C97.389 129.811 98.001 122.983 97.983 84.185C97.964 44.425 97.367 38.358 92.493 28.396C87.32 17.822 78.308 10.499 66.65 7.39498C58.637 5.26098 40.773 5.62899 33.666 8.07399ZM301.462 7.98C288.616 12.155 278.838 22.139 274.901 35.102C272.986 41.405 272.899 43.961 273.207 85.122L273.532 128.5L276.306 135.5C281.351 148.231 288.568 155.694 299.5 159.486C306.758 162.003 324.572 162.606 333.78 160.645C354.191 156.299 362.52 144.508 363.728 118.25L364.291 106H347.645H331V115.099C331 125.564 329.353 130.249 324.855 132.575C318.35 135.939 311.69 133.998 308.271 127.741C306.675 124.821 306.473 120.586 306.223 85C305.969 48.777 306.093 45.216 307.723 42.071C310.279 37.139 314.256 34.545 318.973 34.733C327.81 35.086 331 40.303 331 54.401V64H347.611H364.222L363.731 49.75C363.187 33.939 362.517 30.94 357.768 23.027C353.91 16.599 348.256 12.029 340.282 8.89498C331.949 5.61998 310.297 5.109 301.462 7.98ZM115.017 67.75C115.036 130.509 115.342 135.597 119.656 144.687C125.345 156.676 138.596 162.349 161 162.384C189.814 162.43 201.805 153.009 204.96 127.845C205.568 122.995 206 96.401 206 63.776V7.99999H189.5H173L172.923 64.75C172.844 123.927 172.856 123.519 170.978 128.053C167.218 137.131 150.602 134.759 148.622 124.861C148.28 123.15 148 96.156 148 64.875V7.99999H131.5H115L115.017 67.75ZM224 83.5V159H240H256V83.5V7.99999H240H224V83.5ZM378 83.5V159H394.5H411V135.126C411 111.322 411.008 111.238 413.58 106.635C416.23 101.894 418 100.034 418 101.989C418 103.365 441.769 157.169 442.857 158.257C443.292 158.692 451.572 158.924 461.258 158.774L478.868 158.5L465.839 131C458.673 115.875 449.553 96.49 445.571 87.921L438.333 72.343L448.303 55.421C461.944 32.271 475.226 9.65599 475.714 8.74999C475.936 8.33699 468.081 7.99999 458.258 7.99999H440.399L438.227 12.25C437.032 14.587 432.441 23.25 428.023 31.5C423.606 39.75 418.081 50.219 415.746 54.765L411.5 63.031L411.234 35.515L410.968 7.99999H394.484H378V83.5ZM487.762 83.5L487.5 159H523.75H560V145V131H540H520V69.5V7.99999H504.012H488.025L487.762 83.5ZM572 83.5V159H609.25H646.5V145V131H625.75H605V114.5V98H622.75H640.5V83.5V69H622.75H605V52.5V36H625.75H646.5V22V7.99999H609.25H572V83.5ZM684.521 9.24999C684.292 9.93799 683.408 15 682.557 20.5C681.706 26 680.782 31.625 680.503 33C680.224 34.375 679.328 39.55 678.513 44.5C677.697 49.45 676.796 54.625 676.51 56C676.224 57.375 675.09 63.675 673.989 70C672.888 76.325 670.883 87.575 669.534 95C668.185 102.425 666.842 109.85 666.55 111.5C664.879 120.952 662.341 134.106 659.941 145.75L657.209 159H672.443H687.676L687.822 155.75C687.903 153.962 688.162 151.556 688.398 150.402C688.634 149.248 689.116 145.873 689.471 142.902C690.622 133.242 689.171 134 706.508 134C714.964 134 722.109 134.367 722.386 134.815C722.663 135.263 723.403 139.651 724.032 144.565C724.66 149.479 725.359 154.85 725.584 156.5L725.994 159.5L741.853 159.204L757.713 158.907L754.833 146.704C751.357 131.976 746.954 110.788 743.985 94.5C742.782 87.9 741.578 81.375 741.309 80C739.363 70.039 733.492 37.955 731.427 26C730.05 18.025 728.685 10.712 728.394 9.74999C727.912 8.15399 725.975 7.99999 706.401 7.99999C690.119 7.99999 684.837 8.30199 684.521 9.24999ZM768 83.5V159H784.5H801V131.507V104.014L812.75 104.05C826.328 104.092 832.83 102.547 840.5 97.455C848.1 92.409 851.114 88.692 853.623 81.271C855.736 75.022 855.897 72.995 855.706 54.976L855.5 35.452L852.216 28.784C849.873 24.028 847.486 20.964 843.89 18.101C833.62 9.925 823.434 7.99999 790.428 7.99999H768V83.5ZM44.654 37.999C42.406 39.972 40.855 42.518 40.119 45.442C38.614 51.42 38.597 119.009 40.1 124.421C40.699 126.578 42.462 129.615 44.017 131.171C46.316 133.47 47.723 134 51.523 134C55.472 134 56.709 133.491 59.471 130.729C64.566 125.634 65.252 119.084 64.807 79.744C64.494 52.066 64.164 45.9 62.837 42.918C59.188 34.72 50.932 32.487 44.654 37.999ZM801 56.235V77.29L807.949 76.707C816.151 76.02 818.439 74.968 821.05 70.686C822.648 68.065 822.98 65.728 822.919 57.5C822.79 39.773 820.34 36.122 808.181 35.53L801 35.181V56.235ZM705.723 45C705.417 45.825 704.864 48.525 704.494 51C703.135 60.091 702.867 61.718 700.871 73C698.243 87.845 696.041 102.028 696.018 104.25C696.002 105.811 697.181 106 706.943 106C717.759 106 717.88 105.974 717.428 103.75C716.948 101.389 710.582 68.035 709.46 62C709.101 60.075 708.24 55.125 707.544 51C706.849 46.875 706.03 44.175 705.723 45Z" fill="#FFEBC0"/>
<path fill-rule="evenodd" clip-rule="evenodd" d="M37.0591 1.556C17.7411 5.745 4.94705 19.717 1.35105 40.552C0.0790538 47.924 -0.106948 56.287 0.284052 88.491C0.587052 113.481 1.17605 129.09 1.92305 131.924C3.83105 139.169 9.12505 148.776 13.9651 153.779C16.4591 156.357 19.6251 159.848 21.0001 161.538C24.8441 166.26 36.3201 176.354 42.5361 180.48C50.5581 185.805 61.1711 187.81 72.5951 186.158L80.9401 184.951L90.2201 193.948L99.5001 202.944L104.822 202.972C110.115 203 110.204 202.949 121.617 193.25L133.09 183.5L129.199 180C127.06 178.075 123.422 174.406 121.116 171.846L116.922 167.192L119.839 162.592L122.757 157.992L125.482 161.746C139.617 181.22 164.195 189.947 192.5 185.544C198.55 184.603 205.327 183.033 207.561 182.056C211.599 180.29 218.306 174.484 221.117 170.321C222.569 168.172 222.707 168.253 231.013 176.071L239.436 184H259.218H279V168.143V152.286L283.105 155.893C285.363 157.877 289.526 161.919 292.355 164.875C298.291 171.077 309.148 179.992 313.507 182.243C318.193 184.663 333.31 187.147 339.257 186.473C355.279 184.659 371.324 178.978 377.604 172.897L380.707 169.891L387.518 176.946L394.328 184H414.636H434.944L435.222 170.25L435.5 156.5L437.445 160.5C438.515 162.7 443.682 168.888 448.926 174.25L458.462 184H478.345H498.227L497.787 181C497.545 179.35 497.634 178 497.986 178C498.338 178 499.919 179.35 501.5 181L504.374 184H542.624H580.874L580.306 180.5C579.994 178.575 580.156 177 580.666 177C581.177 177 583.352 178.8 585.5 181L589.406 185H625.19H660.973L662.693 181.25L664.412 177.5L664.767 181.25L665.121 185H686.949H708.777L709.549 181.25C709.974 179.188 710.443 177.05 710.591 176.5C710.74 175.95 711.632 171.788 712.573 167.25C713.797 161.352 714.711 159 715.782 159C716.606 159 717.877 158.212 718.608 157.25C719.781 155.705 719.94 155.99 719.968 159.678C719.999 163.703 720.401 164.224 730.97 173.928L741.94 184H758.97H776V179.792V175.584L780.288 179.792L784.576 184H804.288H824V157.713V131.426L834.666 130.305C844.535 129.267 846.086 128.794 855.416 123.976C860.962 121.112 867.003 117.358 868.839 115.634C875.805 109.096 879.229 98.492 880.507 79.5C881.908 58.672 875.148 39.57 862.041 27.322C836.903 3.82999 837.235 3.95001 795.369 3.27301C774.409 2.93501 765.631 3.12699 764.075 3.95999L761.912 5.11701L762.206 44.059C762.478 80.078 762.076 89.485 760.725 78.75C760.431 76.413 758.082 63.7 755.505 50.5C752.928 37.3 750.608 25.391 750.351 24.035C750.094 22.68 745.972 17.437 741.192 12.386L732.5 3.20099L706.25 3.10001C691.813 3.04501 680 3.26302 680 3.58402C680 4.43202 673.631 41.881 669.045 68C662.235 106.784 657.96 129.249 657.097 130.791C656.427 131.988 655.813 131.666 653.945 129.139L651.624 126H639.312C627.667 126 627 125.892 627 124C627 122.095 627.667 122 641 122C652.722 122 655.02 121.756 655.125 120.5C655.194 119.675 655.332 118.663 655.431 118.25C656.228 114.959 657.011 110.873 657.493 107.5C658.176 102.716 658.511 100.791 660.365 91.001L661.786 83.502L652.206 73.751L642.626 64H634.813C628.535 64 627 63.705 627 62.5C627 61.218 629.82 61 646.378 61H665.757L666.861 53.75C667.469 49.762 668.211 45.375 668.511 44C668.811 42.625 669.696 37.935 670.478 33.577L671.898 25.654L667.027 20.077C664.348 17.01 659.515 11.907 656.287 8.73902L650.419 2.97699L608.96 3.23902L567.5 3.5L567.244 65L566.989 126.5L554.977 126.191L542.965 125.882L543.019 75.861L543.072 25.84L532.094 14.42L521.115 3H479.226H437.337L433.5 10C431.39 13.85 429.363 17 428.995 17C428.628 17 425.287 13.85 421.57 10L414.812 3H393.906H373V16.74V30.48L364.04 20.87C349.883 5.687 341.464 1.53399 322.5 0.381992C314.278 -0.118008 311.042 0.142 304.303 1.84C293.495 4.563 288.955 7.00001 281.893 13.867L276.028 19.57L267.786 11.285L259.544 3H238.676H217.807L218.153 8.00101C218.344 10.751 218.406 13.001 218.29 13.001C218.175 13 215.976 10.75 213.403 8L208.726 3H188.363H168L167.972 11.75L167.944 20.5L159.43 11.75L150.917 3H130.458H110L109.981 19.75L109.962 36.5L103.754 29.5C90.8791 14.982 84.311 9.04099 77.736 5.96399C65.89 0.419992 50.1571 -1.285 37.0591 1.556ZM38.4021 6.486C35.0481 7.215 30.0891 8.935 27.3821 10.306C17.0161 15.559 8.17306 28.699 6.05206 42C4.65106 50.786 4.68306 118.908 6.09206 126.566C7.79106 135.804 12.9051 145.778 18.6991 151.157C25.5961 157.56 30.1511 159.642 41.4871 161.574C49.8751 163.004 52.4851 163.061 60.3601 161.99C74.6331 160.049 73.2161 159.483 75.4031 168C76.4621 172.125 77.4381 175.646 77.5711 175.824C77.8521 176.198 106.301 171.89 106.893 171.384C107.108 171.2 106.818 170.475 106.248 169.774C105.677 169.073 102.047 162.966 98.1811 156.203L91.152 143.906L93.4981 138.601C94.7881 135.683 96.3291 130.672 96.9221 127.464C98.3191 119.905 98.3411 50.731 96.9481 42C94.8191 28.649 85.9381 15.563 75.5601 10.486C69.6671 7.602 57.2611 5.04502 49.5001 5.11402C46.7501 5.13902 41.7561 5.756 38.4021 6.486ZM307.5 6.39499C290.462 9.79999 279.125 20.006 274.221 36.35C271.832 44.312 271.235 111.109 273.436 124.124C276.433 141.848 284.893 154.017 297.798 159.168C302.893 161.201 305.204 161.445 319.5 161.453C333.755 161.462 336.108 161.218 341.079 159.223C356.834 152.9 364.1 138.888 364.4 114.25L364.5 106.001L347.75 106H331V114.48C331 128.68 327.444 134 317.951 134C312.766 134 308.783 130.168 307.126 123.586C305.614 117.581 305.592 50.011 307.1 44.579C308.781 38.523 312.896 35 318.288 35C327.275 35 331 40.851 331 54.968V64L347.75 64.001L364.5 64.002L364.248 50.754C363.972 36.229 362.677 30.538 357.925 22.976C352.208 13.879 344.855 9.26701 331.792 6.58301C322.892 4.75501 315.974 4.70199 307.5 6.39499ZM115.221 70.75C115.525 133.317 115.533 133.52 117.843 140.377C122.326 153.688 132.129 160.145 150.972 162.199C161.667 163.365 176.302 162.15 184.244 159.437C190.236 157.39 198.153 150.334 200.817 144.667C205.554 134.588 206 127.813 206 65.89V8H189.5H173L172.976 63.75C172.96 98.468 172.561 121.192 171.918 123.985C170.631 129.568 168.725 131.728 163.949 133.014C156.482 135.024 149.44 130.426 148.613 123C148.399 121.075 148.173 94.413 148.112 63.75L148 8H131.458H114.916L115.221 70.75ZM224 84.025V160.05L240.25 159.775L256.5 159.5L256.732 83.75L256.964 8H240.482H224V84.025ZM378 84V160H394.5H411V135.897V111.795L413.75 106.898C415.262 104.205 416.725 102.02 417 102.041C417.275 102.063 423.125 114.85 430 130.457L442.5 158.834L448.123 159.501C451.216 159.867 459.423 160.017 466.361 159.833C477.984 159.526 478.931 159.358 478.403 157.696C478.088 156.704 474.793 149.504 471.079 141.696C467.366 133.888 460.329 118.95 455.442 108.5C450.555 98.05 444.701 85.688 442.434 81.029L438.312 72.558L441.307 67.529C442.954 64.763 447.09 57.775 450.499 52C453.907 46.225 461.039 34.146 466.348 25.159C471.657 16.171 476 8.634 476 8.409C476 8.184 467.961 8 458.136 8H440.272L425.886 35.043L411.5 62.086L411.234 35.043L410.968 8H394.484H378V84ZM487.244 83.75L487.5 159.5L523.75 159.762L560 160.025V145.512V131H540.658H521.316L520.661 112.25C520.301 101.938 520.004 74.262 520.003 50.75L520 8H503.494H486.987L487.244 83.75ZM572 84.012V160.024L609.25 159.762L646.5 159.5L646.777 145.25L647.055 131H626.027H605V114.5V98H623H641V83.5V69H623H605V52.5V36H626H647V22V8H609.5H572V84.012ZM683.203 15.25C682.596 19.238 681.193 27.675 680.086 34C678.979 40.325 676.948 52.025 675.573 60C670.987 86.609 658.842 151.88 657.474 157.277L656.77 160.053L672.121 159.777L687.472 159.5L689.162 148C690.091 141.675 690.884 135.938 690.925 135.25C690.982 134.307 694.793 134 706.433 134C720.282 134 721.914 134.18 722.343 135.75C722.807 137.447 724.681 150.42 725.341 156.5L725.666 159.5L741.833 159.775C750.725 159.926 758 159.683 758 159.235C758 158.787 757.305 155.751 756.455 152.489C754.308 144.245 747.714 113.251 744.597 96.75C738.349 63.671 736.875 55.676 734.505 42C733.122 34.025 731.735 26.375 731.422 25C731.109 23.625 730.347 19.238 729.728 15.25L728.602 8H706.454H684.306L683.203 15.25ZM768 84V160H784.5H801V132.652V105.305L813.25 104.64C830.476 103.706 837.126 101.383 846.315 93.092C854.154 86.019 855.972 79.114 855.988 56.355C856.003 34.718 854.486 28.686 847.132 21.135C836.483 10.203 827.413 8 793.053 8H768V84ZM45.6151 37.088C39.4731 41.92 39.5001 41.705 39.5001 85C39.5001 123.049 39.5751 124.628 41.5551 127.998C44.2621 132.607 47.4571 134.186 52.9671 133.64C58.0961 133.131 61.1741 130.281 63.1101 124.248C63.9051 121.772 64.4551 109.473 64.7311 88C65.2181 50.095 64.3651 42.604 59.0051 37.75C55.1941 34.299 49.5181 34.018 45.6151 37.088ZM801 56.5V77H804.451C811.751 77 817.876 74.983 820.111 71.844C822.033 69.145 822.233 67.612 822.127 56.383C821.955 38.23 820.417 36 808.066 36H801V56.5ZM704.994 47.25C704.99 48.488 703.169 60.525 700.947 74C698.725 87.475 696.663 100.188 696.365 102.25L695.822 106H706.738H717.653L714.319 88.75C712.485 79.262 709.993 65.538 708.783 58.25C707.572 50.962 706.226 45 705.791 45C705.356 45 704.997 46.012 704.994 47.25ZM471.671 77.189L461.841 93.358L467.335 103.929C470.356 109.743 474.885 118.325 477.398 123L481.967 131.5L481.983 96.25C481.992 76.863 481.888 61.005 481.75 61.01C481.612 61.016 477.077 68.297 471.671 77.189ZM329.439 86.204L329.377 101H348.737H368.096L370.516 103.75L372.937 106.5L372.968 97.25L373 88L360.75 87.967L348.5 87.933L339 79.671L329.5 71.408L329.439 86.204Z" fill="#060C05"/>
</svg>
